<svg width="100" height="100" viewBox="0 0 100 100" fill="none" xmlns="http://www.w3.org/2000/svg">
<path d="M44.8732 99.4516C56.1147 70.356 73.1969 59.2658 99.5314 41.8102C100.386 41.2433 99.997 39.886 98.9642 39.886H81.7635C76.7522 39.886 71.7833 41.0113 67.2884 43.262C49.402 52.2389 40.2683 73.6203 43.2479 99.2454C43.3495 100.13 44.5515 100.285 44.8732 99.4516Z" fill="#006FF1"/>
<path d="M39.0324 78.9551C38.8885 79.7197 37.8473 79.8314 37.5595 79.1012C28.6036 56.7319 30.4912 44.2157 42.6977 32.2837L61.8116 14.4415C66.1202 10.1979 69.2353 5.55908 71.0468 0.516532C71.3008 -0.179288 72.2742 -0.170681 72.5113 0.533729C79.0039 19.9308 70.6659 32.404 58.4425 43.056C55.175 45.8994 52.1785 49.0521 49.639 52.5741C43.5781 60.9497 40.8778 68.9732 39.0324 78.9466V78.9551Z" fill="#48A0FF"/>
<path d="M29.5347 66.7566C20.037 57.2385 10.3785 48.6653 0.449129 41.793C-0.388902 41.2175 0.0258829 39.886 1.03321 39.886H31.3632C31.6425 39.886 31.8203 40.1866 31.7017 40.4444C28.3919 47.4283 27.5793 56.6887 29.7633 66.6364C29.7971 66.7738 29.6363 66.8597 29.5347 66.7652V66.7566Z" fill="#37D0F8"/>
</svg>
