<svg width="462" height="128" viewBox="0 0 462 128" fill="none" xmlns="http://www.w3.org/2000/svg">
<path d="M58.8732 113.452C70.1147 84.3562 87.1969 73.2661 113.531 55.8105C114.386 55.2435 113.997 53.8862 112.964 53.8862H95.7635C90.7522 53.8862 85.7833 55.0116 81.2884 57.2622C63.402 66.2392 54.2683 87.6206 57.2479 113.246C57.3495 114.13 58.5515 114.285 58.8732 113.452Z" fill="#006FF1"/>
<path d="M53.0324 92.9551C52.8885 93.7197 51.8473 93.8314 51.5595 93.1012C42.6036 70.7319 44.4912 58.2157 56.6977 46.2837L75.8116 28.4415C80.1202 24.1979 83.2353 19.5591 85.0468 14.5165C85.3008 13.8207 86.2742 13.8293 86.5113 14.5337C93.0039 33.9308 84.6659 46.404 72.4425 57.056C69.175 59.8994 66.1785 63.0521 63.639 66.5741C57.5781 74.9497 54.8778 82.9732 53.0324 92.9466V92.9551Z" fill="#48A0FF"/>
<path d="M43.5347 80.7569C34.037 71.2388 24.3785 62.6656 14.4491 55.7933C13.6111 55.2177 14.0259 53.8862 15.0332 53.8862H45.3632C45.6425 53.8862 45.8203 54.1869 45.7017 54.4446C42.3919 61.4286 41.5793 70.689 43.7633 80.6366C43.7971 80.7741 43.6363 80.86 43.5347 80.7655V80.7569Z" fill="#37D0F8"/>
<path d="M156.1 92.873L157.764 100.627C154.046 102.878 149.7 104 144.709 104C139.718 104 135.761 102.402 132.657 99.1991C129.552 95.9957 128 91.3319 128 85.2157V44.0081H137.393V56.6439H156.18C156.18 61.574 152.231 65.5761 147.368 65.5761H137.393V84.7074C137.393 91.6708 140.386 95.1565 146.373 95.1565C148.586 95.1565 151.833 94.3981 156.1 92.8811V92.873Z" fill="#222733"/>
<path d="M198.418 56.6358H207.811V102.983H198.418V95.2291C194.764 101.071 189.438 103.992 182.457 103.992C176.304 103.992 171.249 101.733 167.285 97.206C163.32 92.6875 161.338 86.8859 161.338 79.8096C161.338 72.7332 163.336 67.0043 167.324 62.4534C171.312 57.9026 176.328 55.6272 182.37 55.6272C189.351 55.6272 194.7 58.6046 198.41 64.5594V56.6358H198.418ZM184.447 94.8983C188.491 94.8983 191.842 93.4943 194.509 90.6864C197.168 87.8784 198.497 84.2555 198.497 79.8176C198.497 75.3797 197.168 71.8295 194.509 68.9892C191.85 66.1571 188.499 64.7369 184.447 64.7369C180.395 64.7369 177.187 66.1409 174.64 68.9489C172.093 71.7568 170.819 75.3797 170.819 79.8176C170.819 84.2555 172.093 87.8784 174.64 90.6864C177.187 93.4943 180.459 94.8983 184.447 94.8983Z" fill="#222733"/>
<path d="M215.517 102.983V53.6019C215.517 48.3007 219.759 44 224.989 44V102.983H215.517Z" fill="#222733"/>
<path d="M255.549 55.6272C262.809 55.6272 268.589 58.1689 272.879 63.2523C277.178 68.3356 279.096 74.7262 278.658 82.4239H241.499C241.889 86.5793 243.386 89.823 245.989 92.1549C248.592 94.4868 251.864 95.6487 255.796 95.6487C258.566 95.6487 261.034 95.0597 263.191 93.8816C265.357 92.7036 266.957 90.9849 268.015 88.7418H277.743C276.024 93.7445 273.198 97.5368 269.265 100.119C265.333 102.701 260.811 103.992 255.717 103.992C248.791 103.992 243.091 101.733 238.634 97.206C234.168 92.6875 231.939 86.9101 231.939 79.8902C231.939 72.8703 234.152 67.0688 238.586 62.4938C243.02 57.9187 248.672 55.6272 255.541 55.6272H255.549ZM255.549 63.8816C252.055 63.8816 249.133 64.8822 246.777 66.8752C244.421 68.8682 242.829 71.4663 242.001 74.6697H268.604C267.88 71.4099 266.376 68.8036 264.075 66.8348C261.774 64.866 258.933 63.8816 255.557 63.8816H255.549Z" fill="#222733"/>
<path d="M310.158 55.6272C315.308 55.6272 319.344 57.2329 322.25 60.4282C325.163 63.6315 326.612 68.0694 326.612 73.7418V102.983H317.219V75.6783C317.219 68.376 313.891 64.7208 307.244 64.7208C303.256 64.7208 300.191 65.9715 298.058 68.4728C295.925 70.9742 294.858 74.468 294.858 78.9624V102.975H285.465V56.6278H294.858V64.2932C298.352 58.5078 303.447 55.6111 310.158 55.6111V55.6272Z" fill="#222733"/>
<path d="M362.131 92.8728L363.795 100.627C360.077 102.878 355.731 104 350.74 104C345.749 104 341.792 102.402 338.688 99.1988C335.583 95.9955 334.031 91.3317 334.031 85.2155V44.0078H343.424V56.6436H362.211C362.211 61.5737 358.262 65.5759 353.399 65.5759H343.424V84.7071C343.424 91.6705 346.417 95.1563 352.404 95.1563C354.617 95.1563 357.864 94.3978 362.131 92.8809V92.8728Z" fill="#222733"/>
<path d="M395.302 55.6272C396.464 55.6272 397.38 55.716 398.049 55.8773V65.568C396.942 65.4551 395.995 65.3986 395.223 65.3986C390.677 65.3986 387.023 66.7622 384.253 69.4895C381.483 72.2168 380.098 76.2996 380.098 81.7461V102.983H370.705V56.6358H380.098V65.8182C382.979 59.0242 388.05 55.6191 395.31 55.6191L395.302 55.6272Z" fill="#222733"/>
<path d="M424.302 55.6272C430.949 55.6272 436.561 57.9349 441.138 62.5342C445.707 67.1415 448 72.8946 448 79.8096C448 86.7246 445.723 92.4777 441.186 97.085C436.641 101.692 431.013 103.992 424.31 103.992C417.607 103.992 412.051 101.676 407.474 97.0366C402.904 92.405 400.612 86.66 400.612 79.8015C400.612 72.943 402.912 67.1334 407.513 62.5261C412.115 57.9188 417.711 55.6191 424.302 55.6191V55.6272ZM434.404 68.9812C431.657 66.149 428.29 64.7289 424.302 64.7289C420.314 64.7289 416.946 66.149 414.2 68.9812C411.454 71.8214 410.085 75.4282 410.085 79.8096C410.085 84.191 411.446 87.8704 414.16 90.6783C416.875 93.4863 420.258 94.8902 424.302 94.8902C428.346 94.8902 431.729 93.4863 434.443 90.6783C437.158 87.8704 438.519 84.2474 438.519 79.8096C438.519 75.3717 437.15 71.8214 434.404 68.9812Z" fill="#222733"/>
</svg>
