<svg width="1000" height="500" viewBox="0 0 1000 500" fill="none" xmlns="http://www.w3.org/2000/svg">
<rect width="1000" height="500" rx="100" fill="#1A1A1A"/>
<mask id="mask0_1078_1474" style="mask-type:alpha" maskUnits="userSpaceOnUse" x="0" y="0" width="1000" height="500">
<rect width="1000" height="500" rx="100" fill="white"/>
</mask>
<g mask="url(#mask0_1078_1474)">
<g opacity="0.05">
<path d="M456.319 671.329C552.097 423.434 697.638 328.946 922.008 180.224C929.292 175.393 925.974 163.829 917.175 163.829H770.624C727.929 163.829 685.594 173.417 647.297 192.593C494.904 269.076 417.085 451.246 442.472 669.572C443.337 677.111 453.579 678.428 456.319 671.329Z" fill="#006FF1"/>
<path d="M406.556 496.699C405.33 503.213 396.459 504.164 394.007 497.943C317.702 307.356 333.785 200.718 437.784 99.0573L600.635 -52.9586C637.344 -89.1145 663.885 -128.637 679.319 -171.6C681.483 -177.528 689.777 -177.455 691.796 -171.453C747.113 -6.18993 676.074 100.082 571.93 190.838C544.091 215.064 518.56 241.924 496.924 271.932C445.285 343.293 422.278 411.652 406.556 496.626V496.699Z" fill="#48A0FF"/>
<path d="M325.636 392.768C244.715 311.673 162.425 238.629 77.8263 180.077C70.6863 175.174 74.2203 163.829 82.8027 163.829H341.214C343.594 163.829 345.108 166.391 344.099 168.586C315.899 228.09 308.976 306.989 327.583 391.743C327.871 392.914 326.501 393.646 325.636 392.841V392.768Z" fill="#37D0F8"/>
</g>
</g>
<path d="M395.308 279.692C402.145 262.075 412.535 255.36 428.553 244.792C429.073 244.448 428.836 243.626 428.208 243.626H417.746C414.698 243.626 411.676 244.308 408.942 245.671C398.063 251.106 392.507 264.052 394.32 279.567C394.381 280.102 395.112 280.196 395.308 279.692Z" fill="#006FF1"/>
<path d="M391.756 267.281C391.668 267.744 391.035 267.812 390.86 267.37C385.413 253.826 386.561 246.248 393.985 239.023L405.61 228.22C408.231 225.651 410.126 222.842 411.228 219.789C411.382 219.368 411.974 219.373 412.118 219.8C416.067 231.544 410.996 239.096 403.561 245.546C401.574 247.267 399.751 249.176 398.207 251.309C394.52 256.38 392.878 261.238 391.756 267.276V267.281Z" fill="#48A0FF"/>
<path d="M385.979 259.896C380.202 254.133 374.328 248.942 368.288 244.781C367.779 244.433 368.031 243.626 368.644 243.626H387.091C387.261 243.626 387.369 243.809 387.297 243.965C385.284 248.193 384.79 253.8 386.118 259.823C386.138 259.906 386.041 259.958 385.979 259.901V259.896Z" fill="#37D0F8"/>
<path d="M454.444 267.232L455.456 271.927C453.195 273.29 450.551 273.969 447.516 273.969C444.48 273.969 442.073 273.001 440.185 271.062C438.297 269.122 437.353 266.299 437.353 262.595V237.646H443.066V245.296H454.492C454.492 248.281 452.091 250.704 449.133 250.704H443.066V262.288C443.066 266.504 444.886 268.614 448.527 268.614C449.873 268.614 451.849 268.155 454.444 267.237V267.232Z" fill="white"/>
<path d="M480.183 245.291H485.896V273.353H480.183V268.658C477.96 272.195 474.721 273.964 470.475 273.964C466.732 273.964 463.658 272.596 461.247 269.855C458.835 267.119 457.63 263.607 457.63 259.322C457.63 255.038 458.845 251.569 461.271 248.814C463.697 246.058 466.747 244.681 470.422 244.681C474.668 244.681 477.922 246.483 480.178 250.089V245.291H480.183ZM471.685 268.458C474.145 268.458 476.183 267.608 477.805 265.908C479.422 264.208 480.231 262.014 480.231 259.327C480.231 256.64 479.422 254.491 477.805 252.771C476.188 251.056 474.15 250.196 471.685 250.196C469.221 250.196 467.27 251.046 465.72 252.747C464.171 254.447 463.396 256.64 463.396 259.327C463.396 262.014 464.171 264.208 465.72 265.908C467.27 267.608 469.26 268.458 471.685 268.458Z" fill="white"/>
<path d="M490.583 273.353V243.454C490.583 240.245 493.163 237.641 496.344 237.641V273.353H490.583Z" fill="white"/>
<path d="M514.932 244.681C519.347 244.681 522.862 246.22 525.472 249.297C528.087 252.375 529.253 256.244 528.987 260.905H506.386C506.623 263.421 507.533 265.385 509.117 266.797C510.7 268.209 512.69 268.912 515.082 268.912C516.767 268.912 518.268 268.556 519.58 267.843C520.897 267.129 521.87 266.089 522.514 264.73H528.43C527.384 267.759 525.666 270.056 523.274 271.619C520.882 273.182 518.132 273.964 515.033 273.964C510.821 273.964 507.354 272.596 504.643 269.855C501.927 267.119 500.571 263.622 500.571 259.371C500.571 255.121 501.917 251.608 504.614 248.838C507.311 246.068 510.748 244.681 514.927 244.681H514.932ZM514.932 249.678C512.806 249.678 511.029 250.284 509.596 251.491C508.163 252.698 507.195 254.271 506.691 256.21H522.872C522.431 254.237 521.516 252.659 520.117 251.467C518.718 250.274 516.989 249.678 514.936 249.678H514.932Z" fill="white"/>
<path d="M548.146 244.681C551.278 244.681 553.733 245.653 555.5 247.588C557.272 249.527 558.154 252.214 558.154 255.648V273.353H552.44V256.821C552.44 252.4 550.417 250.187 546.374 250.187C543.948 250.187 542.084 250.944 540.786 252.458C539.489 253.973 538.84 256.088 538.84 258.809V273.348H533.127V245.286H538.84V249.928C540.965 246.425 544.064 244.671 548.146 244.671V244.681Z" fill="white"/>
<path d="M579.757 267.232L580.769 271.927C578.508 273.29 575.865 273.969 572.829 273.969C569.793 273.969 567.387 273.001 565.498 271.062C563.61 269.122 562.666 266.299 562.666 262.595V237.646H568.379V245.296H579.806C579.806 248.281 577.404 250.704 574.446 250.704H568.379V262.288C568.379 266.504 570.2 268.614 573.841 268.614C575.187 268.614 577.162 268.155 579.757 267.237V267.232Z" fill="white"/>
<path d="M599.933 244.681C600.64 244.681 601.196 244.734 601.603 244.832V250.7C600.93 250.631 600.354 250.597 599.884 250.597C597.12 250.597 594.897 251.423 593.212 253.074C591.527 254.725 590.685 257.197 590.685 260.495V273.353H584.972V245.291H590.685V250.851C592.438 246.737 595.522 244.676 599.938 244.676L599.933 244.681Z" fill="white"/>
<path d="M617.571 244.681C621.614 244.681 625.027 246.078 627.811 248.863C630.59 251.652 631.985 255.136 631.985 259.322C631.985 263.509 630.6 266.992 627.84 269.782C625.076 272.572 621.653 273.964 617.576 273.964C613.499 273.964 610.12 272.562 607.336 269.753C604.557 266.948 603.162 263.47 603.162 259.317C603.162 255.165 604.561 251.647 607.36 248.858C610.158 246.068 613.562 244.676 617.571 244.676V244.681ZM623.715 252.766C622.045 251.051 619.997 250.191 617.571 250.191C615.145 250.191 613.097 251.051 611.427 252.766C609.757 254.486 608.924 256.67 608.924 259.322C608.924 261.975 609.752 264.203 611.403 265.903C613.054 267.603 615.111 268.453 617.571 268.453C620.031 268.453 622.088 267.603 623.739 265.903C625.39 264.203 626.218 262.009 626.218 259.322C626.218 256.635 625.386 254.486 623.715 252.766Z" fill="white"/>
</svg>
